<?xml version="1.0" encoding="UTF-8"?>
<svg id="Capa_1" data-name="Capa 1" xmlns="http://www.w3.org/2000/svg" viewBox="0 0 687.23 690.77">
  <defs>
    <style>
      .cls-1 {
        fill: none;
      }

      .cls-2 {
        fill: #fff;
      }
    </style>
  </defs>
  <g id="x4IlhJ.tif">
    <g>
        <path d="M546.22,577.1H132.53c-13.49,0-25.58-8.17-31.9-18.53-7.67-12.57-7.09-27.1-.43-39.47l205.83-381.98c6.56-12.17,19.68-19.2,33-19.34s27.06,6.69,33.68,18.98l207.05,384.34c6.36,11.8,5.4,26.48-1.78,37.99-6.35,10.17-18.27,18.01-31.77,18.01Z"/>
        <path class="cls-2" d="M358.71,423.64c-.5,10.64-9.44,18.11-19.22,18.13-9.88.02-18.75-7.52-19.26-17.91l-7.11-147.23c-.75-15.62,10.33-28.58,25.94-28.85,14.99-.26,27.4,12.3,26.67,27.86l-7.02,148Z"/>
        <circle class="cls-2" cx="339.48" cy="493.86" r="24.18"/>
      </g>
    </g>
  </g>
</svg>