<?xml version="1.0" encoding="UTF-8"?>
<svg id="Capa_1" data-name="Capa 1" xmlns="http://www.w3.org/2000/svg" viewBox="0 0 687.23 690.77">
  <defs>
    <style>
      .cls-1 {
        fill: #fff;
      }
    </style>
  </defs>
  <g id="fmYxuw.tif">
    <g>
      <g>
        <path d="M454.75,488.76l-206.67-.06c-8.05,0-14.95-5.38-18.33-12.17-3-6.02-2.97-12.1-1.37-18.49,3.23-12.91,8.96-24.55,16.61-35.47,6.08-8.67,13.6-15.95,22.03-22.36,6.43-4.9,13.08-8.69,20.3-12.45,9.8-5.12,20.38-8.42,31.34-10.78,22.84-4.9,46.31-4.63,69.06.67,9.93,2.31,19.45,5.44,28.3,10.15,6.32,3.36,12.15,6.62,17.92,10.82,9.19,6.69,17.36,14.48,23.86,23.79,7.65,10.97,13.28,22.69,16.51,35.64,1.65,6.64,1.55,13.17-1.78,19.21-3.46,6.6-9.93,10.97-17.77,11.5Z"/>
        <g>
          <path d="M209.6,463.34l-86.66.03c-5.48,0-10.54-2.27-13.92-6.19-5.1-5.91-7.01-13.32-5.08-20.81,5.35-20.85,15.34-35.35,32.04-48.67,6.66-5.31,13.97-9.29,21.93-12.59,15.25-6.31,31.35-9.19,47.89-9.09,18.09.11,39.23,3.29,54.66,12.93,1.89,1.18,2.58,3.64,2.43,5.48-.18,2.22-1.12,4-2.96,5.37-11.97,8.91-22.47,19.67-30.15,32.52-6.57,10.98-11.57,22.35-14.28,34.84-.63,2.93-2.1,6.17-5.9,6.17Z"/>
          <path d="M251.44,318.22c-12.26,26.14-41.76,41.97-68.9,26.74-10.87-6.1-19.39-15.7-24.65-27.05-5.96-12.86-8.22-26.75-5.85-40.69,1.86-10.92,6.7-20.35,14.1-28.54,19.28-21.36,57.1-21.79,76.93-.17,7.73,8.43,12.77,18.25,14.52,29.6,2.13,13.8-.23,27.47-6.16,40.12Z"/>
        </g>
        <g>
          <path d="M401.45,318.45c-16.65,25.79-48.41,38.04-76.65,22.26-9.57-5.35-17.68-13.02-23.63-22.26-7.79-12.09-12.36-25.38-13.38-39.7-.73-10.31.41-20.17,3.68-29.96,5.02-15.03,15.46-26.81,29.26-34.58,17.67-9.96,43.21-9.98,60.88-.05,13.82,7.77,24.32,19.51,29.45,34.53,7.98,23.37,3.72,49.13-9.6,69.76Z"/>
          <path d="M573.47,338.99c-1.18,2.18-4.33,3.56-6.72,2.26l-41.01-22.27-2.43-1.75c-2.34-1.69-3.41-4.58-2.03-7.17,1.13-2.12,4.26-3.76,6.88-2.34,6.53,3.53,13.03,6.81,19.34,10.66,4.07,2.48,8.01,4.61,12.31,6.77l-1.83-6.67-10.11-34.62-10.35-35.48-3.64-12.42c-4.77.38-9.04-1.66-11.62-5.23s-3.36-8.4-1.67-12.9l-3.37-3.88-28.5-30.14c-3.26,1.12-6.32,1.04-9.52-.1l-19.69,19.58c1.23,3.68.99,7.34-.61,10.93-2.03,4.57-6.62,7.37-11.45,7.39s-9.51-2.81-11.54-7.36c-1.67-3.74-1.86-7.54-.51-11.27l-22.03-23.35c-1.63-1.72-2.85-3.45-4.73-5.19-7.63,2.69-15.54-1.73-17.23-9.7-.91-4.29.34-8.65,3.23-11.79s7.08-4.76,11.55-3.98c8.24,1.44,12.8,10.09,9.84,17.97l11.53,12.4,15.24,16.29c3.36-1.23,6.42-1.1,9.56.13l16.2-16.37,3.44-3.7c-1.43-4.24-.98-8.54,1.54-12.27,2.11-3.12,5.79-5.46,10.09-5.63s8.54,2.06,10.91,5.43c2.66,3.8,3.18,8.38,1.53,12.84,1.34,1.07,2.02,2.39,3.15,3.58l28.75,30.35c5.5-1.93,11.38-.34,14.62,4.22,3.44,4.85,3.93,10.71.81,15.78l5.49,18.8,10.13,34.7,10.02,34.23c.44,1.49.58,2.82,1.32,4.39.87-1.23,1.28-2.59,2.07-4.04l14.98-27.59c1.44-2.66,4.62-3.35,6.97-2.25,2.6,1.22,4.02,4.44,2.6,7.08l-12.43,23.12-11.09,20.53Z"/>
        </g>
      </g>
    </g>
  </g>
</svg>