<?xml version="1.0" encoding="UTF-8" standalone="no"?>
<!-- Created with Inkscape (http://www.inkscape.org/) -->

<svg
   width="127.15272mm"
   height="220.91644mm"
   viewBox="0 0 127.15272 220.91644"
   version="1.1"
   id="svg1"
   xml:space="preserve"
   inkscape:export-filename="bitmap.svg"
   inkscape:export-xdpi="96"
   inkscape:export-ydpi="96"
   xmlns:inkscape="http://www.inkscape.org/namespaces/inkscape"
   xmlns:sodipodi="http://sodipodi.sourceforge.net/DTD/sodipodi-0.dtd"
   xmlns="http://www.w3.org/2000/svg"
   xmlns:svg="http://www.w3.org/2000/svg"><sodipodi:namedview
     id="namedview1"
     pagecolor="#ffffff"
     bordercolor="#000000"
     borderopacity="0.25"
     inkscape:showpageshadow="2"
     inkscape:pageopacity="0.0"
     inkscape:pagecheckerboard="0"
     inkscape:deskcolor="#d1d1d1"
     inkscape:document-units="mm"
     showguides="false"
     inkscape:zoom="1.5282058"
     inkscape:cx="368.07871"
     inkscape:cy="580.09204"
     inkscape:window-width="2560"
     inkscape:window-height="1494"
     inkscape:window-x="-11"
     inkscape:window-y="-11"
     inkscape:window-maximized="1"
     inkscape:current-layer="layer1"><inkscape:page
       x="0"
       y="0"
       width="127.15272"
       height="220.91644"
       id="page2"
       margin="0"
       bleed="0" /></sodipodi:namedview><defs
     id="defs1"><linearGradient
       id="swatch9"
       inkscape:swatch="solid"><stop
         style="stop-color:#000000;stop-opacity:1;"
         offset="0"
         id="stop9" /></linearGradient><linearGradient
       id="swatch7"
       inkscape:swatch="solid"><stop
         style="stop-color:#000000;stop-opacity:1;"
         offset="0"
         id="stop7" /></linearGradient></defs><g
     inkscape:label="Capa 1"
     inkscape:groupmode="layer"
     id="layer1"
     transform="translate(-53.978951,-17.55563)"><g
       id="g9"
       transform="matrix(0.75079356,0,0,0.72261103,26.294792,-59.344985)"><path
         style="display:inline;mix-blend-mode:normal;fill:#f0b90b;fill-opacity:1;stroke-width:0.762939"
         d="M 56.990957,157.37509 46.598083,146.94371 v -0.099 -0.099 l 2.966325,-2.97109 2.966326,-2.97108 h 0.117153 0.117152 l 1.556634,1.54076 c 0.856149,0.84741 4.15235,4.15686 7.32489,7.35434 3.17254,3.19746 5.81695,5.82191 5.876465,5.8321 l 0.108211,0.0186 2.006641,-2.05169 c 1.103653,-1.12843 4.390052,-4.44622 7.30311,-7.37286 l 5.29647,-5.32116 h 0.108242 0.108242 l 2.977975,2.98796 2.977975,2.98798 -0.02004,0.12454 -0.02004,0.12455 -10.354533,10.38896 -10.354531,10.38896 h -0.138461 -0.13846 z m 4.482556,-12.91762 -0.253738,-0.0891 -0.226412,-0.25277 -0.226412,-0.25277 -0.0749,-0.2504 -0.07491,-0.25041 v -0.85848 -0.85847 l -0.0793,-0.0651 -0.0793,-0.0651 -0.856369,-0.0221 -0.856368,-0.0221 -0.231126,-0.14395 -0.231127,-0.14396 -0.101905,-0.21509 -0.101906,-0.2151 10e-5,-2.8813 9.7e-5,-2.8813 0.110913,-0.22022 0.110912,-0.22021 0.222021,-0.12925 0.222021,-0.12922 0.849419,0.0162 0.84942,0.0162 0.08624,-0.0716 0.08624,-0.0717 v -0.88377 -0.88377 l 0.09191,-0.22032 c 0.05055,-0.12117 0.167022,-0.31895 0.258832,-0.43951 l 0.166928,-0.2192 0.268672,-0.13028 0.268674,-0.13027 h 2.418078 2.418077 l 0.168165,-0.064 0.168166,-0.064 -0.02131,-1.03196 c -0.01172,-0.56758 -0.04441,-1.0677 -0.07263,-1.11138 l -0.05132,-0.0794 -1.312526,-0.003 -1.312526,-0.003 -0.216079,-0.0759 -0.21608,-0.0759 -0.121598,-0.16435 c -0.06688,-0.0904 -0.134899,-0.27622 -0.151155,-0.41298 l -0.02956,-0.24865 0.08178,-0.1527 c 0.04498,-0.084 0.159293,-0.21036 0.254033,-0.2808 l 0.172253,-0.12809 3.689931,0.004 3.689931,0.004 0.165917,0.12132 c 0.09125,0.0667 0.219555,0.22948 0.285113,0.36168 l 0.119194,0.24036 -0.07055,0.23587 c -0.0388,0.12972 -0.144626,0.30563 -0.235161,0.39089 l -0.164609,0.15504 -1.469901,0.0318 -1.4699,0.0318 -0.01729,1.12053 -0.01729,1.12052 0.17062,0.043 c 0.09384,0.0235 1.245671,0.0356 2.559621,0.0266 l 2.389002,-0.0163 0.280514,0.16524 c 0.35568,0.20952 0.53187,0.39906 0.667667,0.71825 l 0.107751,0.25328 0.03801,0.92037 0.038,0.92037 0.253739,0.0469 c 0.139556,0.0258 0.524922,0.0314 0.856367,0.0124 l 0.602631,-0.0345 0.284004,0.14739 0.284004,0.1474 0.128321,0.22238 0.12832,0.22237 v 2.89091 2.8909 l -0.110052,0.20149 c -0.06053,0.11081 -0.203258,0.26806 -0.317174,0.34944 l -0.20712,0.14797 -0.948837,0.0318 -0.948838,0.0318 -0.04393,0.15884 c -0.02416,0.0874 -0.04678,0.5243 -0.05025,0.97097 l -0.0063,0.81213 -0.09818,0.23535 c -0.136788,0.32791 -0.325491,0.51522 -0.694754,0.68963 l -0.317174,0.14982 -5.83599,-0.003 -5.83599,-0.003 z m 11.467238,-1.5201 0.08978,-0.0899 -0.02403,-4.97473 -0.02403,-4.97473 -0.07707,-0.0491 -0.07707,-0.0491 -5.221671,-7.4e-4 -5.221672,-7.6e-4 -0.1227,0.0657 -0.122698,0.0657 v 4.97267 4.97266 l 0.07612,0.0762 0.07613,0.0762 h 5.279577 5.279577 z m -3.525538,-3.71353 c -0.09787,-0.0646 -0.22619,-0.18597 -0.285165,-0.26961 l -0.107227,-0.1521 0.0195,-1.14365 0.0195,-1.14366 0.109322,-0.18837 c 0.06012,-0.10359 0.203224,-0.24328 0.317994,-0.31043 l 0.208673,-0.12206 0.244309,0.0733 0.244309,0.0734 0.163261,0.19434 0.163261,0.19434 0.01584,0.77344 c 0.0087,0.42539 0.01423,0.95929 0.01226,1.18643 l -0.0035,0.41299 -0.111128,0.16925 c -0.223392,0.34024 -0.698569,0.45888 -1.011133,0.25246 z m -4.526365,-0.16501 -0.219473,-0.21983 0.01965,-1.23656 0.01965,-1.23654 0.152057,-0.16196 c 0.08363,-0.0891 0.247936,-0.19366 0.365126,-0.2324 l 0.213071,-0.0704 0.233408,0.11623 c 0.128375,0.0639 0.292343,0.19701 0.364372,0.29572 l 0.130964,0.17948 v 1.09125 1.09125 l -0.08571,0.20339 c -0.04714,0.11188 -0.153181,0.24768 -0.235648,0.30181 l -0.14994,0.0984 h -0.294031 -0.294032 z m -4.331766,0.78835 0.05812,-0.092 0.001,-1.82255 10e-4,-1.82253 -0.06186,-0.16297 -0.06186,-0.16299 h -0.415465 -0.415466 l -0.06186,0.16299 -0.06186,0.16297 v 1.81082 1.81084 l 0.06942,0.12992 0.06942,0.1299 0.410685,-0.0262 0.410685,-0.0262 z m 15.015694,0.0774 0.0802,-0.0509 -0.01677,-2.02886 -0.01677,-2.02886 -0.442535,-0.0192 -0.442536,-0.0192 -0.0808,0.11068 -0.0808,0.11068 v 1.91301 1.913 l 0.07612,0.0762 0.07612,0.0762 0.38378,-7.6e-4 c 0.211079,-5.3e-4 0.41987,-0.024 0.463979,-0.052 z m -33.66031,2.32436 c -1.135887,-1.09913 -4.904697,-4.91829 -4.975465,-5.04193 l -0.05073,-0.0886 0.0524,-0.0938 c 0.02882,-0.0515 1.357437,-1.40967 2.952484,-3.01798 l 2.900086,-2.9242 h 0.142498 0.142497 l 2.934464,2.95037 2.934465,2.95036 v 0.14029 0.14029 l -2.930495,2.9453 -2.930494,2.9453 h -0.118021 -0.118021 z m 47.757759,-1.39661 c -2.613606,-2.59618 -3.552342,-3.58158 -3.552342,-3.72896 0,-0.15312 0.747794,-0.94232 3.421199,-3.61067 l 2.434869,-2.43027 h 0.121904 0.121902 l 2.94464,2.93728 2.94464,2.93728 v 0.14556 0.14556 l -2.94121,2.95312 -2.941209,2.95311 -0.119514,-7.5e-4 -0.119513,-7.5e-4 z M 49.633797,130.52642 c -1.592487,-1.59869 -2.928048,-2.97114 -2.967917,-3.04988 l -0.07248,-0.14317 0.283307,-0.30158 c 0.526922,-0.56093 20.143006,-20.16125 20.446773,-20.43034 l 0.204279,-0.18097 0.142891,0.10025 c 0.232656,0.16321 20.794321,20.76253 20.794321,20.8324 0,0.0682 -1.594932,1.69509 -4.32566,4.41232 l -1.676106,1.66783 -0.123275,7e-5 -0.123275,7e-5 -7.301373,-7.345 -7.301373,-7.34501 -0.110062,0.0223 c -0.06054,0.0123 -3.398084,3.31753 -7.416779,7.34494 l -7.306718,7.32256 -0.125561,-6e-5 -0.125561,-8e-5 z"
         id="path3"
         sodipodi:nodetypes="ccccccccssscssccccccccccccccccccccccccccccccccccccccccsscccccccsscccccsscsscccsscssccccccccssccccccccccccsscccsscsscccccccccccccccccccccsscccsscccccsccsssccccsscsscccssccccccccccccccccccccccccccccccccccccsscsscccccccccccscssccccccccccccsscsscsssccccccscccs" /><text
         xml:space="preserve"
         style="font-style:normal;font-variant:normal;font-weight:normal;font-stretch:normal;font-size:19.9568px;font-family:'Sans Serif Collection';-inkscape-font-specification:'Sans Serif Collection, Normal';font-variant-ligatures:normal;font-variant-caps:normal;font-variant-numeric:normal;font-variant-east-asian:normal;text-align:start;letter-spacing:0px;word-spacing:0.500877px;writing-mode:lr-tb;direction:ltr;text-anchor:start;display:inline;fill:#f0b90b;fill-opacity:1;stroke:#f0b90b;stroke-width:1.47774;stroke-linecap:round;stroke-linejoin:miter;stroke-dasharray:none;stroke-opacity:1;paint-order:normal"
         x="157.9903"
         y="140.31396"
         id="text3"
         transform="scale(0.97146856,1.0293694)"><tspan
           id="tspan3"
           style="font-style:normal;font-variant:normal;font-weight:normal;font-stretch:normal;font-size:19.9568px;font-family:'Sans Serif Collection';-inkscape-font-specification:'Sans Serif Collection, Normal';font-variant-ligatures:normal;font-variant-caps:normal;font-variant-numeric:normal;font-variant-east-asian:normal;text-align:center;letter-spacing:0px;word-spacing:0.500877px;text-anchor:middle;fill:#f0b90b;fill-opacity:1;stroke:#f0b90b;stroke-width:1.47774;stroke-linecap:round;stroke-linejoin:miter;stroke-dasharray:none;stroke-opacity:1;paint-order:normal"
           x="157.9903"
           y="140.31396"
           sodipodi:role="line"
           rotate="0 0 0 0 0.3000468 0 0 0 0"
           dx="0.37316388 0.78411436 0.78411436 0.78411436 0.78411436 0.78411436 0.78411436 0.78411436">BOTFORGE</tspan></text></g></g></svg>
