<?xml version="1.0" encoding="UTF-8"?>
<svg id="Capa_1" data-name="Capa 1" xmlns="http://www.w3.org/2000/svg" viewBox="0 0 687.23 690.77">
  <defs>
    <style>
      .cls-1 {
        fill: #f0b90b;
      }
    </style>
  </defs>
  <g id="layer1">
    <path id="path3-6" class="cls-1" d="M279.82,489.9l-75.85-78.18v-1.48l21.65-22.27,21.65-22.27h1.71l11.36,11.55c6.25,6.35,30.3,31.16,53.46,55.12,23.15,23.96,42.45,43.63,42.89,43.71l.79.14,14.64-15.38c8.05-8.46,32.04-33.32,53.3-55.26l38.65-39.88h1.58l21.73,22.39,21.73,22.39-.15.93-.15.93-75.57,77.86-75.57,77.86h-2.02l-75.84-78.18ZM312.53,393.09l-1.85-.67-1.65-1.89-1.65-1.89-.55-1.88-.55-1.88v-12.87l-.58-.49-.58-.49-6.25-.17-6.25-.17-1.69-1.08-1.69-1.08-.74-1.61-.74-1.61v-21.59s0-21.6,0-21.6l.81-1.65.81-1.65,1.62-.97,1.62-.97,6.2.12,6.2.12.63-.54.63-.54v-13.25l.67-1.65c.37-.91,1.22-2.39,1.89-3.29l1.22-1.64,1.96-.98,1.96-.98h35.29l1.23-.48,1.23-.48-.16-7.73c-.09-4.25-.32-8-.53-8.33l-.37-.59-9.58-.04-9.58-.04-1.58-.57-1.58-.57-.89-1.23c-.49-.68-.98-2.07-1.1-3.1l-.22-1.86.6-1.14c.33-.63,1.16-1.58,1.85-2.1l1.26-.96,26.93.04,26.93.04,1.21.91c.67.5,1.6,1.72,2.08,2.71l.87,1.8-.51,1.77c-.28.97-1.06,2.29-1.72,2.93l-1.2,1.16-10.73.24-10.73.24-.13,8.4-.13,8.4,1.25.32c.68.18,9.09.27,18.68.2l17.43-.12,2.05,1.24c2.6,1.57,3.88,2.99,4.87,5.38l.79,1.9.28,6.9.28,6.9,1.85.35c1.02.19,3.83.24,6.25.1l4.4-.26,2.07,1.11,2.07,1.11.94,1.67.94,1.67v43.33l-.8,1.51c-.44.83-1.48,2.01-2.31,2.62l-1.51,1.11-6.92.24-6.92.24-.32,1.19c-.18.65-.34,3.93-.37,7.28l-.05,6.09-.72,1.76c-1,2.46-2.38,3.86-5.07,5.17l-2.31,1.12h-42.59s-42.59-.02-42.59-.02l-1.85-.67ZM396.22,381.7l.66-.67-.18-37.29-.18-37.29-.56-.37-.56-.37h-38.11s-38.11-.01-38.11-.01l-.9.49-.9.49v74.54l.55.57.55.57h77.06l.66-.68ZM370.49,353.86c-.71-.48-1.65-1.39-2.08-2.02l-.78-1.14.14-8.57.14-8.57.8-1.41c.44-.78,1.48-1.82,2.32-2.33l1.52-.92,1.78.55,1.78.55,1.19,1.46,1.19,1.46.12,5.8c.06,3.19.11,7.19.09,8.89l-.04,3.1-.81,1.27c-1.63,2.55-5.1,3.44-7.38,1.89h0ZM337.46,352.63l-1.6-1.65.14-9.27.14-9.27,1.11-1.21c.61-.67,1.81-1.45,2.66-1.74l1.55-.53,1.7.87c.94.48,2.13,1.48,2.66,2.22l.96,1.35v16.36l-.63,1.52c-.34.84-1.12,1.86-1.72,2.26l-1.09.74h-4.29l-1.6-1.65ZM305.85,358.54l.42-.69v-13.66s.01-13.66.01-13.66l-.45-1.22-.45-1.22h-6.06l-.45,1.22-.45,1.22v27.14l.51.97.51.97,3-.2,3-.2.43-.69ZM415.43,359.12l.59-.38-.12-15.21-.12-15.21-3.23-.14-3.23-.14-.59.83-.59.83v28.68l.55.57.55.57h2.8c1.54,0,3.06-.18,3.39-.4h0ZM169.78,376.54c-8.29-8.24-35.79-36.86-36.31-37.79l-.37-.66.38-.7c.21-.39,9.91-10.57,21.55-22.62l21.16-21.92h2.08l21.42,22.11,21.42,22.11v2.1l-21.39,22.07-21.39,22.07h-1.72l-6.83-6.79ZM518.31,366.07c-19.07-19.46-25.92-26.84-25.92-27.95s5.46-7.06,24.97-27.06l17.77-18.21h1.78l21.49,22.01,21.49,22.01v2.18l-21.46,22.13-21.46,22.13h-.87s-.87-.01-.87-.01l-16.9-17.24ZM226.13,288.68c-11.62-11.98-21.37-22.27-21.66-22.86l-.53-1.07,2.07-2.26c3.85-4.2,147-151.11,149.22-153.12l1.49-1.36,1.04.75c1.7,1.22,151.75,155.61,151.75,156.14s-11.64,12.7-31.57,33.07l-12.23,12.5h-.9s-.9,0-.9,0l-53.28-55.05-53.28-55.05-.8.17c-.44.1-24.8,24.86-54.13,55.05l-53.32,54.88h-.92s-.92,0-.92,0l-21.13-21.79Z"/>
  </g>
</svg>