<?xml version="1.0" encoding="UTF-8" standalone="no"?>
<!-- Created with Inkscape (http://www.inkscape.org/) -->

<svg
   width="127.15272mm"
   height="220.91644mm"
   viewBox="0 0 127.15272 220.91644"
   version="1.1"
   id="svg1"
   xml:space="preserve"
   inkscape:export-filename="IMAGOTIPO.svg"
   inkscape:export-xdpi="96"
   inkscape:export-ydpi="96"
   xmlns:inkscape="http://www.inkscape.org/namespaces/inkscape"
   xmlns:sodipodi="http://sodipodi.sourceforge.net/DTD/sodipodi-0.dtd"
   xmlns="http://www.w3.org/2000/svg"
   xmlns:svg="http://www.w3.org/2000/svg"><sodipodi:namedview
     id="namedview1"
     pagecolor="#ffffff"
     bordercolor="#000000"
     borderopacity="0.25"
     inkscape:showpageshadow="2"
     inkscape:pageopacity="0.0"
     inkscape:pagecheckerboard="0"
     inkscape:deskcolor="#d1d1d1"
     inkscape:document-units="mm"
     showguides="false"
     inkscape:zoom="1.5282058"
     inkscape:cx="368.07871"
     inkscape:cy="580.09204"
     inkscape:window-width="2560"
     inkscape:window-height="1494"
     inkscape:window-x="-11"
     inkscape:window-y="-11"
     inkscape:window-maximized="1"
     inkscape:current-layer="layer1"><inkscape:page
       x="0"
       y="0"
       width="127.15272"
       height="220.91644"
       id="page2"
       margin="0"
       bleed="0" /></sodipodi:namedview><defs
     id="defs1"><linearGradient
       id="swatch9"
       inkscape:swatch="solid"><stop
         style="stop-color:#000000;stop-opacity:1;"
         offset="0"
         id="stop9" /></linearGradient><linearGradient
       id="swatch7"
       inkscape:swatch="solid"><stop
         style="stop-color:#000000;stop-opacity:1;"
         offset="0"
         id="stop7" /></linearGradient></defs><g
     inkscape:label="Capa 1"
     inkscape:groupmode="layer"
     id="layer1"
     transform="translate(-53.978951,-17.55563)"><path
       style="display:inline;mix-blend-mode:normal;fill:#f0b90b;fill-opacity:1;stroke-width:0.471462"
       d="m 134.51453,111.60002 -6.481,-6.38777 v -0.0606 -0.0606 l 1.8498,-1.81937 1.84979,-1.81937 h 0.073 0.073 l 0.97072,0.9435 c 0.53389,0.51892 2.5894,2.54549 4.5678,4.5035 1.9784,1.95801 3.62745,3.56511 3.66457,3.57135 l 0.0674,0.0114 1.25135,-1.25637 c 0.68823,-0.691 2.73764,-2.72269 4.55422,-4.51485 l 3.30288,-3.25846 h 0.0674 0.0674 l 1.85706,1.8297 1.85707,1.82972 -0.0125,0.0763 -0.0125,0.0763 -6.45709,6.3618 -6.45709,6.36179 h -0.0863 -0.0863 z m 2.79532,-7.91025 -0.15823,-0.0546 -0.14119,-0.15478 -0.14118,-0.15479 -0.0468,-0.15334 -0.0467,-0.15334 v -0.52569 -0.5257 l -0.0495,-0.0399 -0.0495,-0.0399 -0.53402,-0.0135 -0.53403,-0.0135 -0.14414,-0.0881 -0.14413,-0.0882 -0.0635,-0.13171 -0.0635,-0.13172 7e-5,-1.76439 5e-5,-1.764398 0.0691,-0.13485 0.0691,-0.13486 0.13845,-0.0791 0.13846,-0.0791 0.5297,0.01 0.5297,0.01 0.0538,-0.0439 0.0538,-0.0439 v -0.54118 -0.54119 l 0.0574,-0.13491 c 0.0315,-0.0742 0.10416,-0.19532 0.16141,-0.26914 l 0.10409,-0.13423 0.16755,-0.0798 0.16755,-0.0797 h 1.50791 1.50791 l 0.10487,-0.0392 0.10486,-0.0392 -0.0133,-0.63193 c -0.008,-0.34756 -0.0277,-0.65382 -0.0453,-0.68057 l -0.032,-0.0486 -0.81849,-0.003 -0.81849,-0.003 -0.13475,-0.0464 -0.13475,-0.0464 -0.0759,-0.10064 c -0.0416,-0.0553 -0.0841,-0.16916 -0.0943,-0.2529 l -0.0184,-0.15226 0.051,-0.0935 c 0.0281,-0.0514 0.0993,-0.1288 0.15841,-0.17194 l 0.10742,-0.0785 2.30103,0.003 2.30105,0.003 0.10347,0.0743 c 0.0569,0.0409 0.13692,0.14052 0.17779,0.22147 l 0.0744,0.1472 -0.044,0.14443 c -0.0242,0.0795 -0.0902,0.18715 -0.14665,0.23937 l -0.10264,0.0949 -0.91663,0.0195 -0.91664,0.0195 -0.0108,0.68617 -0.0108,0.68617 0.1064,0.0262 c 0.0585,0.0145 0.77682,0.0218 1.59619,0.0162 l 1.48977,-0.01 0.17493,0.10119 c 0.2218,0.1283 0.33168,0.24437 0.41637,0.43984 l 0.0672,0.15509 0.0238,0.5636 0.0238,0.56359 0.15823,0.0287 c 0.0871,0.0158 0.32733,0.0192 0.53402,0.008 l 0.3758,-0.0212 0.17711,0.0903 0.17711,0.0903 0.08,0.13618 0.08,0.13618 v 1.770278 1.77027 l -0.0686,0.12338 c -0.0377,0.0679 -0.12676,0.16416 -0.19779,0.21398 l -0.12916,0.0906 -0.5917,0.0195 -0.59169,0.0195 -0.0273,0.0973 c -0.0151,0.0535 -0.0291,0.32106 -0.0313,0.59458 l -0.004,0.49733 -0.0612,0.14411 c -0.0854,0.2008 -0.20297,0.31551 -0.43325,0.4223 l -0.19779,0.0917 -3.63932,-8.4e-4 -3.63933,-8.4e-4 z m 7.15098,-0.93085 0.056,-0.055 -0.015,-3.04633 -0.015,-3.046338 -0.048,-0.03 -0.048,-0.03 -3.25623,-4.6e-4 -3.25624,-4.7e-4 -0.0765,0.0403 -0.0765,0.0403 v 3.045058 3.04506 l 0.0474,0.0467 0.0474,0.0467 h 3.29234 3.29235 z m -2.19853,-2.27402 c -0.0611,-0.0396 -0.14105,-0.11387 -0.17783,-0.1651 l -0.0669,-0.0931 0.0121,-0.70033 0.0121,-0.700328 0.0682,-0.11534 c 0.0375,-0.0634 0.12674,-0.14898 0.19831,-0.1901 l 0.13014,-0.0748 0.15234,0.0448 0.15235,0.0449 0.10182,0.11901 0.10181,0.11899 0.01,0.47364 c 0.005,0.260488 0.009,0.587428 0.008,0.726518 l -0.003,0.2529 -0.0693,0.10364 c -0.13932,0.20835 -0.43563,0.281 -0.63055,0.15459 z m -2.82263,-0.10104 -0.13688,-0.13462 0.0122,-0.75722 0.0122,-0.757208 0.0948,-0.0992 c 0.0522,-0.0545 0.15462,-0.11858 0.22769,-0.14231 l 0.13287,-0.0431 0.14556,0.0711 c 0.08,0.0391 0.18231,0.12064 0.22722,0.18109 l 0.0817,0.1099 v 0.66823 0.668248 l -0.0535,0.12455 c -0.0294,0.0685 -0.0955,0.15167 -0.14695,0.18481 l -0.0935,0.0603 h -0.18336 -0.18336 z m -2.7013,0.48276 0.0362,-0.0564 4.8e-4,-1.11605 4.9e-4,-1.116038 -0.0386,-0.0998 -0.0386,-0.0998 h -0.25908 -0.25909 l -0.0385,0.0998 -0.0386,0.0998 v 1.108878 1.10888 l 0.0433,0.0796 0.0433,0.0796 0.2561,-0.016 0.25611,-0.0161 z m 9.36378,0.0474 0.0501,-0.0312 -0.0104,-1.24239 -0.0104,-1.242388 -0.27597,-0.0117 -0.27596,-0.0117 -0.0504,0.0678 -0.0504,0.0678 v 1.171458 1.17145 l 0.0474,0.0467 0.0474,0.0467 0.23933,-4.6e-4 c 0.13162,-3.3e-4 0.26182,-0.0146 0.28933,-0.0319 z m -20.99057,1.42335 c -0.70834,-0.67307 -3.05858,-3.011768 -3.1027,-3.087478 l -0.0317,-0.0542 0.0327,-0.0574 c 0.018,-0.0316 0.84649,-0.86323 1.84117,-1.8481 l 1.8085,-1.79066 h 0.0889 0.0889 l 1.82994,1.80669 1.82993,1.80669 v 0.0859 0.0859 l -1.82746,1.803588 -1.82746,1.80359 h -0.0735 -0.0736 z m 29.78176,-0.85523 c -1.62985,-1.5898 -2.21525,-2.193228 -2.21525,-2.283468 0,-0.0938 0.46633,-0.57705 2.13347,-2.21104 l 1.51839,-1.4882 h 0.076 0.076 l 1.83628,1.79868 1.83628,1.79868 v 0.0891 0.0891 l -1.83415,1.808368 -1.83413,1.80837 -0.0746,-4.6e-4 -0.0745,-4.6e-4 z M 129.9266,95.158952 c -0.99308,-0.97898 -1.82594,-1.81941 -1.8508,-1.86763 l -0.0452,-0.0877 0.17666,-0.18467 c 0.3286,-0.34349 12.5612,-12.34596 12.75063,-12.51074 l 0.12738,-0.11082 0.0891,0.0614 c 0.1451,0.0999 12.96735,12.71417 12.96735,12.75696 0,0.0418 -0.99459,1.03799 -2.69747,2.70192 l -1.04522,1.02132 -0.0769,3e-5 -0.0769,6e-5 -4.55314,-4.4978 -4.55314,-4.4978 -0.0686,0.0137 c -0.0377,0.008 -2.11906,2.03152 -4.62511,4.49775 l -4.55647,4.48405 -0.0783,-4e-5 -0.0782,-5e-5 z"
       id="path3-6"
       sodipodi:nodetypes="ccccccccssscssccccccccccccccccccccccccccccccccccccccccsscccccccsscccccsscsscccsscssccccccccssccccccccccccsscccsscsscccccccccccccccccccccsscccsscccccsccsssccccsscsscccssccccccccccccccccccccccccccccccccccccsscsscccccccccccscssccccccccccccsscsscsssccccccscccs" /></g></svg>
