<?xml version="1.0" encoding="UTF-8"?>
<svg id="Capa_1" data-name="Capa 1" xmlns="http://www.w3.org/2000/svg" viewBox="0 0 687.23 690.77">
  <defs>
    <style>
      .cls-1 {
        fill: #191a1f;
      }

      .cls-2 {
        fill: #f0b90b;
      }
    </style>
  </defs>
  <g id="layer1">
    <g id="g11">
      <path id="path10" class="cls-1" d="M65.98,274.08C112.92,133.43,274.85,54.21,428.01,96.96c153.16,42.76,239.8,191.36,193.71,332.25-46.1,140.89-207.54,220.93-360.96,178.95-153.42-41.98-240.95-190.14-195.7-331.26"/>
      <path id="path3-2" class="cls-2" d="M266.07,486.76l-73.46-68.38v-1.3l20.97-19.48,20.97-19.48h1.66l11,10.1c6.05,5.55,29.35,27.25,51.77,48.21,22.42,20.96,41.12,38.16,41.54,38.23l.76.12,14.18-13.45c7.8-7.4,31.03-29.14,51.62-48.33l37.44-34.88h1.53l21.05,19.59,21.05,19.59-.14.82-.14.82-73.19,68.1-73.19,68.1h-1.96l-73.46-68.38ZM297.76,402.09l-1.79-.58-1.6-1.66-1.6-1.66-.53-1.64-.53-1.64v-11.25l-.56-.43-.56-.43-6.05-.14-6.05-.14-1.63-.94-1.63-.94-.72-1.41-.72-1.41v-18.89s0-18.89,0-18.89l.78-1.44.78-1.44,1.57-.85,1.57-.85,6,.11,6,.11.61-.47.61-.47v-11.59l.65-1.44c.36-.79,1.18-2.09,1.83-2.88l1.18-1.44,1.9-.85,1.9-.85h34.18l1.19-.42,1.19-.42-.15-6.76c-.08-3.72-.31-7-.51-7.29l-.36-.52-9.28-.02-9.28-.02-1.53-.5-1.53-.5-.86-1.08c-.47-.59-.95-1.81-1.07-2.71l-.21-1.63.58-1c.32-.55,1.13-1.38,1.8-1.84l1.22-.84,26.08.03,26.08.03,1.17.8c.65.44,1.55,1.5,2.02,2.37l.84,1.58-.5,1.55c-.27.85-1.02,2-1.66,2.56l-1.16,1.02-10.39.21-10.39.21-.12,7.34-.12,7.34,1.21.28c.66.15,8.8.23,18.09.17l16.89-.11,1.98,1.08c2.51,1.37,3.76,2.62,4.72,4.71l.76,1.66.27,6.03.27,6.03,1.79.31c.99.17,3.71.21,6.05.08l4.26-.23,2.01.97,2.01.97.91,1.46.91,1.46v37.9l-.78,1.32c-.43.73-1.44,1.76-2.24,2.29l-1.46.97-6.71.21-6.71.21-.31,1.04c-.17.57-.33,3.44-.35,6.36l-.04,5.32-.69,1.54c-.97,2.15-2.3,3.38-4.91,4.52l-2.24.98-41.25-.02-41.25-.02-1.8-.58ZM378.81,392.12l.63-.59-.17-32.61-.17-32.61-.55-.32-.55-.32h-36.91s-36.91-.01-36.91-.01l-.87.43-.87.43v65.19l.54.5.54.5h74.63l.64-.59ZM353.89,367.78c-.69-.42-1.6-1.22-2.02-1.77l-.76-1,.14-7.5.14-7.5.77-1.23c.42-.68,1.44-1.59,2.25-2.03l1.47-.8,1.73.48,1.73.48,1.15,1.27,1.15,1.27.11,5.07c.06,2.79.1,6.29.08,7.78l-.02,2.71-.79,1.11c-1.58,2.23-4.94,3.01-7.15,1.65h0ZM321.9,366.7l-1.55-1.44.14-8.11.14-8.11,1.07-1.06c.59-.58,1.75-1.27,2.58-1.52l1.51-.46,1.65.76c.91.42,2.07,1.29,2.58,1.94l.93,1.18v14.31l-.61,1.33c-.33.73-1.08,1.62-1.67,1.98l-1.06.64h-4.16l-1.55-1.44ZM291.28,371.87l.41-.6v-11.95s.01-11.95.01-11.95l-.44-1.07-.44-1.07h-5.87l-.44,1.07-.44,1.07v23.74l.49.85.49.85,2.9-.17,2.9-.17.41-.6ZM397.41,372.37l.57-.33-.12-13.3-.12-13.3-3.13-.13-3.13-.13-.57.73-.57.72v25.08l.54.5.54.5h2.71c1.49,0,2.97-.16,3.28-.35h0ZM159.5,387.61c-8.03-7.2-34.67-32.24-35.17-33.05l-.36-.58.37-.61c.2-.34,9.59-9.24,20.87-19.78l20.5-19.17h2.01l20.74,19.34,20.74,19.34v1.84l-20.71,19.31-20.71,19.31h-1.67l-6.61-5.93ZM497.06,378.46c-18.47-17.02-25.11-23.48-25.11-24.44s5.29-6.18,24.18-23.67l17.21-15.93h1.72l20.81,19.25,20.81,19.25v1.91l-20.79,19.36-20.79,19.36h-.84s-.84,0-.84,0l-16.37-15.08ZM214.07,310.77c-11.26-10.48-20.7-19.48-20.98-19.99l-.51-.94,2-1.98c3.72-3.68,142.37-132.16,144.52-133.92l1.44-1.19,1.01.66c1.64,1.07,146.98,136.1,146.98,136.56s-11.27,11.11-30.57,28.92l-11.85,10.93h-.87s-.87,0-.87,0l-51.61-48.15-51.61-48.15-.78.15c-.43.08-24.02,21.75-52.42,48.15l-51.65,48h-.89s-.89,0-.89,0l-20.46-19.05Z"/>
    </g>
  </g>
</svg>