<?xml version="1.0" encoding="UTF-8"?>
<svg id="Capa_1" data-name="Capa 1" xmlns="http://www.w3.org/2000/svg" viewBox="0 0 687.23 690.77">
  <defs>
    <style>
      .cls-1 {
        fill: #010101;
      }

      .cls-2 {
        fill: #676767;
      }

      .cls-3 {
        fill: #8b8b8b;
      }

      .cls-4 {
        fill: #0e0e0e;
      }
    </style>
  </defs>
  <g id="REZAOb">
    <g>
      <g>
        <path class="cls-2" d="M411.21,546.34c-2.72-9.4-.18-19.77-1.06-29.56,1.24,9.68.56,19.66,1.06,29.56Z"/>
        <path class="cls-4" d="M403.2,385.9c1.85,3.48-3.62,8.87,7.19,14.63.78.42,1.62-.58,1.99-.69-.78,2.92-1.61,6.7-4.4,7.85-.25.49-.52.94-.91,1.25-1.9,1.51-2.48,9.1-2.36,12.45-.84,3.04-2.13,6.26-3.19,9.2-1.66,2.82-4.47,3.65-6.75,1.04-2.71-5.89,2.02-3.54-5.15-9.46,1.43-1.9,3.47-2.91,5.25-4.17,1.06-.75,2.26-1.14,2.25-3.4l-.07-17.04c3.23-1.61.33-8.81,3.07-10.91.71-.54,1.96-.67,3.05-.77Z"/>
        <path class="cls-3" d="M346.91,557.65c-.46-.01-1.19-.21-1.58.05-.51.34-.66,1.16-.66,2.13l.06,12.58c-1.27,1.85-2.99-22.91,2.18-14.76Z"/>
      </g>
      <path class="cls-1" d="M410.15,516.78c.08,9.89.43,19.74,1.06,29.56,3.57,4.33,8.79,7.01,12.12,12.57,3.52,5.87,6.96,16.3,1.48,21.96s-15.12,4.16-21.82,5.58c-8.17,1.73-15.4.31-23.31-.19-6.21-.39-11.8-.32-17.89-1.86-8.08-2.04-24.58-2.69-24.63-10.93l-.21-38.43c.03,4.93-1.5-21.62-2.39-18.33l-27.26,7.83c2,8.83,2.33,16.74,2.83,25.14.43,7.31,3.27,14.58-.5,21.77-2.09,3.98-8.26,8.32-12.72,8.58-10.22.59-15.39-8.45-16.71-17.75l-5.68-40.21-36-13.59c-.7,6.36-2.01,10.41-3.67,15.18-3.74,10.77-5.26,22.11-9.51,32.11-2.83,6.66-11.19,8.99-16.87,7.06-5.36-1.82-10.53-8.37-9.64-15.37,1.33-10.4,4.31-20.08,6.62-30.29,1.38-6.09,2.07-12.34,4.54-18.06-2.08-3.47-5.5-3.07-7.9-5.61-4.48-4.76-10.93-11.12-12.2-18.5l-22.37-130.05c-2-11.65.99-23.99,7-33.93,9.86-16.31,28.11-20.73,45.91-22.56l11.94-1.23,9.07-1.21-12.37-10.63c-6.37-5.47-6.88-14.73-8.06-21.21-9.04-8.34-16.22-16.35-18.14-29.39-3.58-24.29,2.87-49.84,27.3-58.91,9.97-21.95,18.76-36.7,39.63-49.59,14.38-8.88,30.66-14.46,47.57-16.02,5.56-.51,9.49.13,14.35-3.49,3.19-2.38,8.58-1.2,12.43-2.95l1.67-10.42c-6.65-5.55-10.09-13.67-6.21-21.54,2.63-5.35,6.92-9.74,11.38-10.36,6.45-.9,11.9.31,15.79,5.25,3.47,4.4,6.09,10.25,4.53,15.76-1.39,4.93-4.39,10.17-10.06,12.11-.39,4.24-.33,7.2-.06,12.12,8.04.1,12.77,6.44,19.18,9.14,16.47,6.93,32.05,14.28,43.9,28.31,10.7,12.67,18.47,28.29,19.3,45.33.3,6.05,2.59,7.49,5.3,11.97,9.29,15.38,8.23,34.8,4.27,51.86-1.82,7.83-5.37,13.27-11.46,18-3.6,2.79-.5,21.33-8.45,35.55-4.75,8.49-14.08,12.02-22.52,15.02l-9.87,3.49c3.88,5.19,6.39,9.53,9.18,14.48l5.96,10.58c2.76,4.9,5.53,9.36,8.24,14.22,2.25,4.04,8.36,2.59,11.98,2.2l38.61-4.13,21.63-2.37c7.3-.8,14.26-1.2,21.67-2.55,4.65-.85,9.49.41,14.18-1.3,3.92-1.43,7.96-.85,11.99-1.32l11.73-1.39c4.89-.58,10.56-1.61,13.83,3.26,1.52,2.25,2.02,5.64,2.7,8.36l-28.42,82.7-4.72,13.16-3.48,11.13c-6.24,19.96-25.3,13.19-42,19.05,4.84,17.07,6.28,33.81,5.43,51.36,3.2,4.06,8.34,5.8,11.07,9.81,3.81,5.61,6.97,11.63,6.6,18.15-.33,5.8-3.45,8.91-8.6,9.63l-22.9,3.22c-5.01.71-9.5-.6-14.29-1.02l-10.08-.87c-8.16-.71-15.79-1.89-23.84-3.58-4.82-1.01-8.2-2.89-8.29-8.85l-.69-43.28c-.13-8.25-2.76-15.91-6.21-23.25-5.5.78-9.49,1.53-14.59,3.33l2.65,20.67ZM345.1,70.02c.29,5.72,6.05,8.96,11.04,8.42,5.29-.57,8.45-5.47,8.31-10.68-.13-5.1-4.59-9.34-10.04-9.6-6.3-.3-9.64,5.52-9.32,11.87ZM354.21,86.81c-.16-.79-2.93-.48-2.96.27-.09,2-.73,9.81,2.87,8.24.97-2.67.59-6.14.09-8.51ZM376.32,115.44c-6.23-11.81-19.25-13.26-31.56-13.22-7.36.03-14.85,1.02-19.42,8.06,9.91,8.53,41.57,12.41,50.99,5.16ZM402.03,290.79l-14.92,2.1c-14.02,1.97-50.12-1.03-65.35-4.23l-10.97-2.31c-6.34-1.33-12.09-3.56-18.13-5.8-17.89-6.62-14.64-25.79-13.46-40.72l.68-8.56c1.3-16.3,2.85-32.78,8.37-48.23,6.84-19.18,32.72-13.19,48.78-11.69l13.08,1.22,17.49,1.04c15.24.91,30.24.29,45.26-.3l22.86-.89c-4.42-26.89-28.29-48.09-51.08-56.57-1.99,4.11-4.99,6.87-9.41,8.18-15.26,4.53-41.39,2.97-54.18-8.18-2.3-2.01-3.04-5.14-1.39-7.71-11.11-1.48-35.95,7.68-44.93,13.33-16.97,10.69-28.14,23.15-35.95,43.17,15.93.99,17.86,19,20.48,29.2,4.16,16.25-.52,46.44-11.63,58.67-4.79,5.28-12.47,6.14-19.53,3.76-1.34,9.23,12.88,20.13,18.77,24.26,23.19,16.25,49.99,24.84,77.67,29.2,10.25,1.62,34.05,3.23,44.24,1.92,6.43-.83,12.62-.29,19.17-1.78,16.65-3.78,41.16-6.32,43.82-29.45-5.43,5.99-20.89,9.11-29.76,10.36ZM223.88,246.48c4.42,1.89,10.87,5.65,15.49,2.88,16.38-9.85,18.5-55.12,6.37-73.38-5.45-8.21-13.2-3.04-20.96.96,18.56,4.8,17.47,60.45-.9,69.55ZM219.77,240.17c5.8-3.29,8.18-8.28,9.58-14,3.04-12.41,3.36-25.17-1.58-37.05-1.29-3.1-4.55-7.15-8.28-5.88-12.64,4.29-14.9,53.2.28,56.93ZM441.7,250.95c9.54-14.91,10.09-34.8,3.94-51.07-.37,3.23-1.58,6.38-1.52,9.3.31,16.92-3.31,24.4-2.42,41.77ZM354.69,225.08c-.02-3.08,1.9-5.87.75-9.25-9.9.82-11.35-2.13-22.24-.98-2.41,6.68-1.4,21.99-3.09,28.12-.81,2.91-1.11,8.5,2.8,9.03,6.21.84,12.7-.35,18.48,1.29,2.28.79,3.3-28.21,3.3-28.21ZM422.97,253.02l.31-15.62c.14-7.23,1.64-14.02.86-21.49l-20.98-.19c-3.81,10.45.04,19.83-2.91,32.01-.38,1.57-.1,3.5.9,4.34,2.38,2.02,17.04,1.45,21.81.94ZM394.89,418.01c-1.78,1.26-3.82,2.26-5.25,4.17,7.17,5.91,2.44,3.57,5.15,9.46-1.33,3.51-3.95,6.02-8.27,5.8-.94,5-4.32,6.98-8.11,8.74,6.63.02,13.17-1.34,18.99-4.15l4.13-11.44c1.06-2.94,2.35-6.16,3.19-9.2,1.27-4.57,3.47-8.88,3.27-13.7,2.78-1.15,3.61-4.93,4.4-7.85,3.26-12.17,8.05-23.81,12.03-36.1-13.89-2.76-24.73,15.58-21.22,22.16-1.1.1-2.34.22-3.05.77-2.74,2.1.15,9.3-3.07,10.91.93-3.25-1-6.71-.94-10.31.32-20.33-4.24-48.68-9.05-68.7-4.46-1.76-8.64.32-12.98.44-10.93.29-21.59.81-32.47-.12l-11.11-.95c-23.95-2.04-61.01-13.11-81.92-27.76-2.4,2.56-2.34,5.52-3.17,8.74,12.69-1.3,23.41,4.81,28.35,17.18,5.49,13.75-4.82,26.32-3.93,30.15,2.31,10.01,6.66,18.82,11.15,28.15,7.85.91,14.74,3.26,22.31,5.21l36.29,9.36c6.68,1.72,26.08-.81,39.62,12.53,4.14,4.08,9.85,6.93,12.67,12.7.82,1.67.81,4.4,2.99,3.81ZM233.77,462.98c-7.8-13.87-10.13-28.4-10.45-43.71-.11-5.31-1.28-9.48.04-15.21.76-3.27,1.03-9.61.07-13.04-7.78-17.25-16.36-44.13-13.02-62.78,2.37-13.21,11.66-23.31,24.73-25.4l3.73-8.2c-13.45.34-24.96,6.56-31.25,17.94-8.12,14.69-5.06,24.5-3.11,41.05l1.86,15.78,1.15,9.76,5.81,45.01c.78,6.08,1.57,11.79,2.34,18l2.92,23.6c5.05.11,9.41-2.34,15.2-2.82ZM322,505.85c-16.34-7.07-25.05,4.54-32.45,1.41l-63.62-26.9c-4.01-1.7-10.37-3.21-12.63-6.96l-6.56-50.02-2.08-17.01-2.51-18.99-5.77-46.53c-2.1-16.96,3.33-32.75,15.68-44.02-24.81,1.5-41.94,23.62-37.47,48.65l3.89,21.74,2.32,13.37,9.11,54.42c2.14,12.77,3.8,24.76,6.96,37.34,1.85,7.37,8.01,15.32,14.99,17.96l80.53,30.39,40.39-10.95c-2.84-2.88-7.06-2.29-10.79-3.9ZM267.33,333.02c3.56-10.85-1.09-24.19-12.9-25.21,10.8,8.61,7.69,12.06,12.9,25.21ZM236.47,398.21c3.62-11.88,13.49-21.86,26.49-24.29,3.26-.61,6.4-.17,9.06-2.14-6.43-14.21-10.54-28.24-13.49-43.12-1.38-6.95-4.04-12.58-9.14-15.47-9.34-5.29-20.16-3.37-27.52,5.26-2.94,3.45-4.76,8.88-5.35,13.44-.46,3.57,1.53,7.31.67,11.18-.97,4.34.63,7.98,1.52,11.82l2.3,9.95c1.77,7.65,8.97,26.3,15.46,33.37ZM403.33,365.7c3.46-4.7,7.91-7.24,13.44-9.32l-21.43-35.74c1.98,12.3,3.2,15.22,4.31,26.7-.33-3.42,3.12,26.34,3.68,18.35ZM396.35,467.73c-2.35,7.16-8.93,18.22-4.22,21.73,1.45,1.08,2.86.8,5.31.39l121.64-20.55c5.18-.87,7.59-2.82,9.32-7.81l35.77-103.25c.77-2.22,1.53-4.52.27-6.13-.75-.95-3.29-1.72-4.94-1.24-1.3.37-29.42,3.54-33.46,4.04l-14.54,1.79-61.3,6.39c-6.71.7-13.34.13-19.29,3.83l-24.69,70.74-9.87,30.08ZM256.74,412.59c-2.08-13.39,2.92-22.85,9.94-32.05-8.14,1.39-15.27,5.05-20.08,11.44-4.8,6.37-4.37,12.06.19,17.3,1.91,2.2,6.59,4.79,9.95,3.31ZM328.45,394.95c-5.78-3.67-9.9-3.11-14.68-5.41-11.44-.5-22.74-8.34-34.46-7.16-11.34,1.14-16.56,17.29-16.41,27.22-1.21,8.61,3.07,12.63,9.86,14.25,15.08,3.6,29.74,7.83,44.46,7.74-5.54-14.37.6-28.32,11.23-36.63ZM342.57,434.75c3.35-14.62,15.64-23.18,26.79-31.82-9.99-4.51-21.02-7.39-31.21-4.38-9.41,2.78-16.29,12.36-15.68,21.85-.37,4.76.2,8.24,4.02,11.09,4.67,2.75,10.24,4.47,16.08,3.26ZM259.16,423.51c-3.05-4.46-8.9-2.07-12.07-4.99l-16.63-15.3c-.53,4.42-.31,7.89-.1,12.97l28.8,7.31ZM374.09,408.92c-.81,0-2.8,2.18-2.03,2.65,7.21,4.41,11.99,10.03,13.73,18.26.18.84,2.81.16,3.14-.61,2.66-6.2-7.65-20.21-14.84-20.29ZM378.92,438.24c5.5-5.25-7.46-20.46-13.41-22.18-2.02-.38-4.54,2.23-6.1,4.68,15.59,5.96,12.28,24.41,19.51,17.5ZM285.84,450.63c6.34-13.32,8.51-6.33,23.11-11.8-26.51-3.22-52.16-8.28-78.84-15.77,1.38,4.94.72,8.86,1.42,13.06,4.59,27.54,23.26,43.1,49.05,49.26-3.62-12.8-.04-23.62,5.26-34.75ZM362.79,447.36c1.73.41,4.77-2.96,4.74-4.52-.19-11.3-12.6-17.05-13.41-16.8-.45.14-4.95,4.75-3.84,9.32.36,1.5,2.47,1.94,3.91,3.43,2.61,2.69,4.18,7.52,8.6,8.58ZM387.97,470.61c-3.68-.77-5.64,1.54-8.63,1.91l-44.52-15.72c6.45-4.16,13.34-2.88,20.46-5.67-3.28-2.38-5.24-7.04-7.55-8.47-7.16-2.76-14.55-.08-21.56,1.16l-27.24,4.84c-2.12.38-4.76-.35-5.35,1.79-.39,1.43-.26,4.6,1.83,5.36l25.87,9.41,62.51,21.54c-.21-6.34,1.4-10.19,4.18-16.15ZM385.88,455.13c-3.51-3.17-8.49-4.59-13.52-.59,4.55,1.72,8.24,2.53,13.52.59ZM368.92,458.74c-6.38-3.25-9.6-4.16-16.29-.89,5.64,2.1,10.99,3.63,16.29.89ZM327.24,499.24c-3.26-9.25-2.5-16.43-.08-24.36l-31.9-11.05c-2.39-.83-4.05-2.41-6.48-4.36-3.37,4.11-4.82,26.97-.36,28.49,13.18,4.47,26.12,7.76,38.81,11.28ZM387.61,465.54c-4.59-3.47-10.44-5.03-16.11-1.7,4.69,3,10.59,4.41,16.11,1.7ZM298.49,499.53l-28.47-9.34c-10.31-3.38-20.05-8.74-27.46-16.84-6.83-7.46-6.57-4.02-18.11-1.27,6.37,3.54,12.27,5.2,18.33,7.86,8.95,3.93,48.93,24.57,55.71,19.59ZM354.65,485.35c-6.79-3.57-13.73-6.14-21.83-7.42-.56,8.65-2.95,16.8,4.26,23.17,7.1-3.64,11.7-9.53,17.57-15.75ZM436.6,538.14c2.82,1.98,6.89,1.38,9.45,1.17,3.44,2.11,5.87,1.09,8.11-1.75,8.83-11.2,23.1-16.54,37.41-11.38,1.3-14.76-.33-29.44-4.37-43.87-13.14,1.67-24.6,3.56-36.65,6.25-4.39-1.17-7.9,1.27-12.13,2.11-2.38.47-7.07-1.22-8.66,1.69,5.55,13.58,4.75,18.84,5.71,31.29l1.13,14.5ZM404.08,539.35c-1.38-9.46.56-16.44-1.05-24.23-1.22-5.91.22-12.21-2.38-17.83-4.51.15-8.63.8-12.43-.87-8.85-3.89-17.8-6.15-27.02-9.3-5.71,8.75-12.55,15.08-21.23,20.38,4.19,14.12,3.86,27.76,3.56,41.94l20.5,2.61c9.86-13.61,26.04-18.36,40.04-12.7ZM220.17,550.39l12.08-43.94-15.19-6.13c-3.61,6.19-3.42,12.6-5.14,18.99-2.51,9.31-4.02,18.62-5.62,28.08-.74,4.41,2.75,7.99,5.87,8.18,3.61.22,6.82-.89,8-5.18ZM303.01,545.33l-2.35-18.92c-7.39,1.84-13,1.61-19.31-2.19,1.21,6.19,2.87,10.69,2.28,16.37,1.9,8.38,3.38,16.41,4.48,25.08.63,4.99,6.18,7.65,10,6.57,8.86-2.49,6.64-12.93,4.9-26.91ZM437.44,559.59c9.8,4.6,20.92,4.39,31.35,5.05.34-14.63,9.44-26.12,23.7-28.51-10.78-10.39-28.52-2.09-35.99,9.51-3.37,5.24-14.2.05-19.09.93-2.47,1.73-3.41,11.4.03,13.01ZM509.54,561.88c.34-6.95-2.41-12-6.52-15.75-2.85-5.24-7.51-4.97-12.42-3.49-9.97,3-16.29,11.78-14.93,22.88,6.43.22,28.89-.42,33.87-3.65ZM346.91,557.65c-5.17-8.15-3.46,16.6-2.18,14.76,11.57,5.25,48.6,8.58,59.86,6.64l14.83-2.54c3.86-13.57-8.68-19.57-13.26-24.79-3.83-4.36-6.27-6.8-12.45-6.91-20.2-.36-23.8,14.28-28.73,14.67-5.85.46-11.65-1.64-18.07-1.83Z"/>
    </g>
  </g>
</svg>